<svg width="433" height="45" viewBox="0 0 433 45" fill="none" xmlns="http://www.w3.org/2000/svg">
<path d="M0.0976562 6.44727H6.55469L21.168 35.249H21.4795L35.8096 6.44727H42.1533V44H35.8096V13.2158H35.6113L20.2051 44H18.9023L3.32617 13.4707H2.90137V44H0.0976562V6.44727ZM70.417 44C69.6618 43.6224 69.0199 43.0938 68.4912 42.4141C67.9814 41.7155 67.7266 40.9225 67.7266 40.0352C67.0469 40.5449 66.3766 41.0736 65.7158 41.6211C65.0739 42.1686 64.3659 42.6689 63.5918 43.1221C62.8366 43.5563 61.987 43.915 61.043 44.1982C60.1178 44.4814 59.0417 44.623 57.8145 44.623C56.6816 44.623 55.6527 44.4342 54.7275 44.0566C53.8213 43.6979 53.0472 43.1976 52.4053 42.5557C51.7822 41.9137 51.2913 41.1491 50.9326 40.2617C50.5928 39.3743 50.4229 38.4209 50.4229 37.4014C50.4229 36.1553 50.6683 35.0319 51.1592 34.0312C51.6501 33.0306 52.3203 32.1432 53.1699 31.3691C54.0384 30.5762 55.0391 29.8776 56.1719 29.2734C57.3047 28.6504 58.513 28.1029 59.7969 27.6309C61.0807 27.14 62.4023 26.7057 63.7617 26.3281C65.1211 25.9505 66.4427 25.6012 67.7266 25.2803V23.4678C67.7266 22.1462 67.6322 21.0322 67.4434 20.126C67.2546 19.2197 66.9619 18.4928 66.5654 17.9453C66.1689 17.3789 65.6592 16.9824 65.0361 16.7559C64.432 16.5104 63.7051 16.3877 62.8555 16.3877C62.0436 16.3877 61.2979 16.5482 60.6182 16.8691C59.9385 17.1901 59.3343 17.6243 58.8057 18.1719C58.2959 18.7005 57.8711 19.333 57.5312 20.0693C57.2103 20.7868 56.9932 21.5514 56.8799 22.3633H51.6123C51.7633 21.1172 52.1882 20.0033 52.8867 19.0215C53.6042 18.0397 54.501 17.2184 55.5771 16.5576C56.6533 15.8779 57.8711 15.3587 59.2305 15C60.6087 14.6413 62.0342 14.4619 63.5068 14.4619C65.3949 14.4619 66.9808 14.6507 68.2646 15.0283C69.5485 15.387 70.5775 15.8968 71.3516 16.5576C72.1257 17.2184 72.6732 18.0303 72.9941 18.9932C73.334 19.9372 73.5039 20.985 73.5039 22.1367V40.0352C73.5039 40.9225 73.7588 41.7155 74.2686 42.4141C74.7972 43.0938 75.4391 43.6224 76.1943 44H70.417ZM67.7266 27.1211C66.8958 27.3854 66.0368 27.6875 65.1494 28.0273C64.262 28.3672 63.3936 28.7542 62.5439 29.1885C61.6943 29.6038 60.8825 30.057 60.1084 30.5479C59.3343 31.0387 58.6546 31.5674 58.0693 32.1338C57.484 32.7002 57.0215 33.2949 56.6816 33.918C56.3418 34.541 56.1719 35.1924 56.1719 35.8721C56.1719 36.5895 56.304 37.2692 56.5684 37.9111C56.8327 38.5342 57.182 39.0911 57.6162 39.582C58.0505 40.054 58.5508 40.4316 59.1172 40.7148C59.6836 40.9792 60.2689 41.1113 60.873 41.1113C61.515 41.1113 62.1286 41.0264 62.7139 40.8564C63.2992 40.6865 63.8656 40.46 64.4131 40.1768C64.9606 39.8747 65.5081 39.5348 66.0557 39.1572C66.6032 38.7796 67.1602 38.3737 67.7266 37.9395V27.1211ZM88.627 44H82.8496V1.85938L86.9561 0.216797H88.627V44ZM99.2754 16.1045L103.325 14.4619H104.996V44H99.2754V16.1045ZM98.8223 3.89844C98.8223 3.44531 98.9072 3.02051 99.0771 2.62402C99.2471 2.22754 99.4831 1.87826 99.7852 1.57617C100.087 1.27409 100.437 1.03809 100.833 0.868164C101.229 0.698242 101.654 0.613281 102.107 0.613281C102.561 0.613281 102.985 0.698242 103.382 0.868164C103.778 1.03809 104.128 1.27409 104.43 1.57617C104.732 1.87826 104.968 2.22754 105.138 2.62402C105.308 3.02051 105.393 3.44531 105.393 3.89844C105.393 4.35156 105.308 4.77637 105.138 5.17285C104.968 5.56934 104.732 5.91862 104.43 6.2207C104.128 6.52279 103.778 6.75879 103.382 6.92871C102.985 7.09863 102.561 7.18359 102.107 7.18359C101.654 7.18359 101.229 7.09863 100.833 6.92871C100.437 6.75879 100.087 6.52279 99.7852 6.2207C99.4831 5.91862 99.2471 5.56934 99.0771 5.17285C98.9072 4.77637 98.8223 4.35156 98.8223 3.89844ZM119.723 14.4619H121.365V20.3242C123.121 18.3607 124.943 16.8975 126.831 15.9346C128.719 14.9528 130.635 14.4619 132.58 14.4619C133.6 14.4619 134.544 14.6885 135.412 15.1416C136.299 15.5947 137.074 16.2178 137.734 17.0107C138.395 17.8037 138.914 18.7383 139.292 19.8145C139.67 20.8717 139.858 22.0046 139.858 23.2129V44H134.109V24.2041C134.109 23.2412 133.996 22.401 133.77 21.6836C133.543 20.9473 133.222 20.3337 132.807 19.8428C132.391 19.3519 131.9 18.9837 131.334 18.7383C130.786 18.474 130.173 18.3418 129.493 18.3418C128.889 18.3418 128.247 18.4456 127.567 18.6533C126.888 18.861 126.189 19.1536 125.472 19.5312C124.773 19.89 124.075 20.3242 123.376 20.834C122.677 21.3438 122.007 21.9102 121.365 22.5332V44H115.588V16.0762L119.723 14.4619ZM161.977 6.44727H174.494C178.346 6.44727 181.659 6.80599 184.435 7.52344C187.21 8.24089 189.523 9.39258 191.373 10.9785C193.488 12.791 195.074 14.8678 196.131 17.209C197.207 19.5501 197.745 22.1084 197.745 24.8838C197.745 27.527 197.264 30.0098 196.301 32.332C195.357 34.6543 193.96 36.6839 192.109 38.4209C190.278 40.139 188.003 41.4984 185.284 42.499C182.584 43.4997 179.488 44 175.995 44H161.977V6.44727ZM168.292 41.2529H175.004C177.118 41.2529 179.11 40.9036 180.979 40.2051C182.849 39.5065 184.472 38.4681 185.851 37.0898C187.248 35.7116 188.343 34.0218 189.136 32.0205C189.948 30.0003 190.354 27.6686 190.354 25.0254C190.354 22.7031 189.976 20.5791 189.221 18.6533C188.465 16.7087 187.408 15.0378 186.049 13.6406C184.689 12.2435 183.066 11.1579 181.178 10.3838C179.309 9.6097 177.26 9.22266 175.032 9.22266H168.292V41.2529ZM212.047 20.3242C213.765 18.3607 215.577 16.8975 217.484 15.9346C219.391 14.9528 221.317 14.4619 223.262 14.4619C224.281 14.4619 225.225 14.6885 226.094 15.1416C226.981 15.5947 227.755 16.2178 228.416 17.0107C229.077 17.8037 229.596 18.7383 229.974 19.8145C230.351 20.8717 230.54 22.0046 230.54 23.2129V44H224.791V24.2041C224.791 22.2783 224.357 20.8245 223.488 19.8428C222.62 18.8421 221.506 18.3418 220.146 18.3418C219.542 18.3418 218.9 18.4456 218.221 18.6533C217.541 18.861 216.852 19.1536 216.153 19.5312C215.455 19.89 214.756 20.3242 214.058 20.834C213.359 21.3438 212.689 21.9102 212.047 22.5332V44H206.27V1.85938L210.404 0.216797H212.047V20.3242ZM258.804 44C258.049 43.6224 257.407 43.0938 256.878 42.4141C256.368 41.7155 256.113 40.9225 256.113 40.0352C255.434 40.5449 254.763 41.0736 254.103 41.6211C253.461 42.1686 252.753 42.6689 251.979 43.1221C251.223 43.5563 250.374 43.915 249.43 44.1982C248.505 44.4814 247.428 44.623 246.201 44.623C245.068 44.623 244.039 44.4342 243.114 44.0566C242.208 43.6979 241.434 43.1976 240.792 42.5557C240.169 41.9137 239.678 41.1491 239.319 40.2617C238.979 39.3743 238.81 38.4209 238.81 37.4014C238.81 36.1553 239.055 35.0319 239.546 34.0312C240.037 33.0306 240.707 32.1432 241.557 31.3691C242.425 30.5762 243.426 29.8776 244.559 29.2734C245.691 28.6504 246.9 28.1029 248.184 27.6309C249.467 27.14 250.789 26.7057 252.148 26.3281C253.508 25.9505 254.829 25.6012 256.113 25.2803V23.4678C256.113 22.1462 256.019 21.0322 255.83 20.126C255.641 19.2197 255.349 18.4928 254.952 17.9453C254.556 17.3789 254.046 16.9824 253.423 16.7559C252.819 16.5104 252.092 16.3877 251.242 16.3877C250.43 16.3877 249.685 16.5482 249.005 16.8691C248.325 17.1901 247.721 17.6243 247.192 18.1719C246.683 18.7005 246.258 19.333 245.918 20.0693C245.597 20.7868 245.38 21.5514 245.267 22.3633H239.999C240.15 21.1172 240.575 20.0033 241.273 19.0215C241.991 18.0397 242.888 17.2184 243.964 16.5576C245.04 15.8779 246.258 15.3587 247.617 15C248.995 14.6413 250.421 14.4619 251.894 14.4619C253.782 14.4619 255.368 14.6507 256.651 15.0283C257.935 15.387 258.964 15.8968 259.738 16.5576C260.512 17.2184 261.06 18.0303 261.381 18.9932C261.721 19.9372 261.891 20.985 261.891 22.1367V40.0352C261.891 40.9225 262.146 41.7155 262.655 42.4141C263.184 43.0938 263.826 43.6224 264.581 44H258.804ZM256.113 27.1211C255.283 27.3854 254.424 27.6875 253.536 28.0273C252.649 28.3672 251.78 28.7542 250.931 29.1885C250.081 29.6038 249.269 30.057 248.495 30.5479C247.721 31.0387 247.041 31.5674 246.456 32.1338C245.871 32.7002 245.408 33.2949 245.068 33.918C244.729 34.541 244.559 35.1924 244.559 35.8721C244.559 36.5895 244.691 37.2692 244.955 37.9111C245.219 38.5342 245.569 39.0911 246.003 39.582C246.437 40.054 246.938 40.4316 247.504 40.7148C248.07 40.9792 248.656 41.1113 249.26 41.1113C249.902 41.1113 250.515 41.0264 251.101 40.8564C251.686 40.6865 252.252 40.46 252.8 40.1768C253.347 39.8747 253.895 39.5348 254.442 39.1572C254.99 38.7796 255.547 38.3737 256.113 37.9395V27.1211ZM275.371 14.4619H277.014V20.4658C277.75 19.6729 278.581 18.9176 279.506 18.2002C280.431 17.4639 281.384 16.8219 282.366 16.2744C283.348 15.708 284.33 15.2643 285.312 14.9434C286.293 14.6224 287.228 14.4619 288.115 14.4619C288.965 14.4619 289.824 14.613 290.692 14.915C291.58 15.2171 292.392 15.6419 293.128 16.1895C293.883 16.737 294.525 17.3883 295.054 18.1436C295.601 18.8799 295.96 19.6917 296.13 20.5791C296.602 19.7295 297.253 18.9365 298.084 18.2002C298.934 17.445 299.868 16.7936 300.888 16.2461C301.907 15.6986 302.983 15.2643 304.116 14.9434C305.268 14.6224 306.391 14.4619 307.486 14.4619C308.581 14.4619 309.601 14.7074 310.545 15.1982C311.508 15.6702 312.348 16.3216 313.065 17.1523C313.783 17.9642 314.349 18.9271 314.765 20.041C315.18 21.1361 315.388 22.3066 315.388 23.5527V44H309.639V24.3457C309.639 23.5339 309.497 22.7692 309.214 22.0518C308.95 21.3154 308.581 20.6735 308.109 20.126C307.637 19.5785 307.08 19.1442 306.438 18.8232C305.815 18.5023 305.155 18.3418 304.456 18.3418C303.663 18.3418 302.851 18.4551 302.021 18.6816C301.209 18.8893 300.435 19.182 299.698 19.5596C298.962 19.9372 298.292 20.3809 297.688 20.8906C297.083 21.3815 296.602 21.9102 296.243 22.4766V44H290.494V24.3457C290.494 23.5339 290.353 22.7692 290.069 22.0518C289.786 21.3154 289.409 20.6735 288.937 20.126C288.465 19.5785 287.908 19.1442 287.266 18.8232C286.624 18.5023 285.953 18.3418 285.255 18.3418C284.519 18.3418 283.754 18.4551 282.961 18.6816C282.187 18.9082 281.422 19.2103 280.667 19.5879C279.931 19.9655 279.242 20.4092 278.6 20.9189C277.958 21.4098 277.429 21.929 277.014 22.4766V44H271.236V16.0762L275.371 14.4619ZM334.362 42.6123C335.136 42.6123 335.854 42.499 336.515 42.2725C337.175 42.027 337.742 41.7061 338.214 41.3096C338.705 40.9131 339.082 40.46 339.347 39.9502C339.611 39.4215 339.743 38.8835 339.743 38.3359C339.743 37.4486 339.517 36.6745 339.063 36.0137C338.629 35.3529 338.044 34.7676 337.308 34.2578C336.59 33.7292 335.769 33.2477 334.844 32.8135C333.919 32.3792 332.975 31.9355 332.012 31.4824C331.049 31.0104 330.105 30.5195 329.18 30.0098C328.255 29.4811 327.424 28.8675 326.688 28.1689C325.97 27.4704 325.385 26.668 324.932 25.7617C324.497 24.8366 324.28 23.7604 324.28 22.5332C324.28 21.3815 324.526 20.3148 325.017 19.333C325.507 18.3324 326.187 17.4733 327.056 16.7559C327.943 16.0384 328.991 15.4814 330.199 15.085C331.408 14.6696 332.729 14.4619 334.164 14.4619C335.127 14.4619 336.024 14.528 336.854 14.6602C337.685 14.7923 338.497 15.0472 339.29 15.4248C340.102 15.8024 340.904 16.3499 341.697 17.0674C342.49 17.766 343.33 18.6816 344.218 19.8145L342.094 21.7119C340.999 19.9183 339.771 18.5872 338.412 17.7188C337.072 16.8314 335.637 16.3877 334.107 16.3877C333.277 16.3877 332.521 16.4915 331.842 16.6992C331.162 16.888 330.577 17.1618 330.086 17.5205C329.614 17.8604 329.236 18.2663 328.953 18.7383C328.689 19.2103 328.557 19.7106 328.557 20.2393C328.557 21.1077 328.793 21.863 329.265 22.5049C329.756 23.1468 330.397 23.7321 331.19 24.2607C331.983 24.7705 332.88 25.2425 333.881 25.6768C334.9 26.111 335.929 26.5547 336.968 27.0078C338.025 27.4609 339.054 27.9518 340.055 28.4805C341.074 29.0091 341.98 29.6227 342.773 30.3213C343.566 31.001 344.199 31.7939 344.671 32.7002C345.162 33.6064 345.407 34.6637 345.407 35.8721C345.407 37.0993 345.181 38.251 344.728 39.3271C344.274 40.3844 343.585 41.3096 342.66 42.1025C341.754 42.8766 340.612 43.4902 339.233 43.9434C337.855 44.3965 336.231 44.623 334.362 44.623C333.513 44.623 332.635 44.557 331.729 44.4248C330.841 44.2926 329.944 44.0378 329.038 43.6602C328.132 43.2637 327.226 42.7161 326.319 42.0176C325.413 41.319 324.526 40.4033 323.657 39.2705L326.008 37.1465C326.706 38.1283 327.377 38.9684 328.019 39.667C328.66 40.3467 329.312 40.9131 329.973 41.3662C330.652 41.8005 331.341 42.1214 332.04 42.3291C332.757 42.5179 333.532 42.6123 334.362 42.6123ZM371.632 44C370.877 43.6224 370.235 43.0938 369.706 42.4141C369.196 41.7155 368.941 40.9225 368.941 40.0352C368.262 40.5449 367.591 41.0736 366.931 41.6211C366.289 42.1686 365.581 42.6689 364.807 43.1221C364.051 43.5563 363.202 43.915 362.258 44.1982C361.333 44.4814 360.257 44.623 359.029 44.623C357.896 44.623 356.868 44.4342 355.942 44.0566C355.036 43.6979 354.262 43.1976 353.62 42.5557C352.997 41.9137 352.506 41.1491 352.147 40.2617C351.808 39.3743 351.638 38.4209 351.638 37.4014C351.638 36.1553 351.883 35.0319 352.374 34.0312C352.865 33.0306 353.535 32.1432 354.385 31.3691C355.253 30.5762 356.254 29.8776 357.387 29.2734C358.52 28.6504 359.728 28.1029 361.012 27.6309C362.296 27.14 363.617 26.7057 364.977 26.3281C366.336 25.9505 367.658 25.6012 368.941 25.2803V23.4678C368.941 22.1462 368.847 21.0322 368.658 20.126C368.469 19.2197 368.177 18.4928 367.78 17.9453C367.384 17.3789 366.874 16.9824 366.251 16.7559C365.647 16.5104 364.92 16.3877 364.07 16.3877C363.258 16.3877 362.513 16.5482 361.833 16.8691C361.153 17.1901 360.549 17.6243 360.021 18.1719C359.511 18.7005 359.086 19.333 358.746 20.0693C358.425 20.7868 358.208 21.5514 358.095 22.3633H352.827C352.978 21.1172 353.403 20.0033 354.102 19.0215C354.819 18.0397 355.716 17.2184 356.792 16.5576C357.868 15.8779 359.086 15.3587 360.445 15C361.824 14.6413 363.249 14.4619 364.722 14.4619C366.61 14.4619 368.196 14.6507 369.479 15.0283C370.763 15.387 371.792 15.8968 372.566 16.5576C373.34 17.2184 373.888 18.0303 374.209 18.9932C374.549 19.9372 374.719 20.985 374.719 22.1367V40.0352C374.719 40.9225 374.974 41.7155 375.483 42.4141C376.012 43.0938 376.654 43.6224 377.409 44H371.632ZM368.941 27.1211C368.111 27.3854 367.252 27.6875 366.364 28.0273C365.477 28.3672 364.608 28.7542 363.759 29.1885C362.909 29.6038 362.097 30.057 361.323 30.5479C360.549 31.0387 359.869 31.5674 359.284 32.1338C358.699 32.7002 358.236 33.2949 357.896 33.918C357.557 34.541 357.387 35.1924 357.387 35.8721C357.387 36.5895 357.519 37.2692 357.783 37.9111C358.048 38.5342 358.397 39.0911 358.831 39.582C359.265 40.054 359.766 40.4316 360.332 40.7148C360.898 40.9792 361.484 41.1113 362.088 41.1113C362.73 41.1113 363.343 41.0264 363.929 40.8564C364.514 40.6865 365.08 40.46 365.628 40.1768C366.175 39.8747 366.723 39.5348 367.271 39.1572C367.818 38.7796 368.375 38.3737 368.941 37.9395V27.1211ZM388.171 14.4619H389.049L389.813 20.3809C390.267 19.5124 390.833 18.7194 391.513 18.002C392.192 17.2845 392.938 16.6615 393.75 16.1328C394.581 15.6042 395.449 15.1982 396.355 14.915C397.281 14.613 398.215 14.4619 399.159 14.4619C400.009 14.4619 400.84 14.5752 401.651 14.8018C402.482 15.0283 403.256 15.387 403.974 15.8779L402.161 20.7207C401.784 20.3053 401.387 19.9749 400.972 19.7295C400.556 19.4652 400.132 19.2669 399.697 19.1348C399.263 18.9837 398.819 18.8893 398.366 18.8516C397.913 18.8138 397.46 18.7949 397.007 18.7949C396.289 18.7949 395.581 18.8988 394.883 19.1064C394.203 19.3141 393.552 19.6257 392.929 20.041C392.306 20.4375 391.73 20.9567 391.201 21.5986C390.673 22.2217 390.21 22.958 389.813 23.8076V44H384.064V16.0479L388.171 14.4619ZM427.196 44C426.441 43.6224 425.799 43.0938 425.271 42.4141C424.761 41.7155 424.506 40.9225 424.506 40.0352C423.826 40.5449 423.156 41.0736 422.495 41.6211C421.853 42.1686 421.145 42.6689 420.371 43.1221C419.616 43.5563 418.766 43.915 417.822 44.1982C416.897 44.4814 415.821 44.623 414.594 44.623C413.461 44.623 412.432 44.4342 411.507 44.0566C410.601 43.6979 409.826 43.1976 409.185 42.5557C408.562 41.9137 408.071 41.1491 407.712 40.2617C407.372 39.3743 407.202 38.4209 407.202 37.4014C407.202 36.1553 407.448 35.0319 407.938 34.0312C408.429 33.0306 409.1 32.1432 409.949 31.3691C410.818 30.5762 411.818 29.8776 412.951 29.2734C414.084 28.6504 415.292 28.1029 416.576 27.6309C417.86 27.14 419.182 26.7057 420.541 26.3281C421.9 25.9505 423.222 25.6012 424.506 25.2803V23.4678C424.506 22.1462 424.411 21.0322 424.223 20.126C424.034 19.2197 423.741 18.4928 423.345 17.9453C422.948 17.3789 422.438 16.9824 421.815 16.7559C421.211 16.5104 420.484 16.3877 419.635 16.3877C418.823 16.3877 418.077 16.5482 417.397 16.8691C416.718 17.1901 416.114 17.6243 415.585 18.1719C415.075 18.7005 414.65 19.333 414.311 20.0693C413.99 20.7868 413.772 21.5514 413.659 22.3633H408.392C408.543 21.1172 408.967 20.0033 409.666 19.0215C410.383 18.0397 411.28 17.2184 412.356 16.5576C413.433 15.8779 414.65 15.3587 416.01 15C417.388 14.6413 418.813 14.4619 420.286 14.4619C422.174 14.4619 423.76 14.6507 425.044 15.0283C426.328 15.387 427.357 15.8968 428.131 16.5576C428.905 17.2184 429.452 18.0303 429.773 18.9932C430.113 19.9372 430.283 20.985 430.283 22.1367V40.0352C430.283 40.9225 430.538 41.7155 431.048 42.4141C431.576 43.0938 432.218 43.6224 432.974 44H427.196ZM424.506 27.1211C423.675 27.3854 422.816 27.6875 421.929 28.0273C421.041 28.3672 420.173 28.7542 419.323 29.1885C418.474 29.6038 417.662 30.057 416.888 30.5479C416.114 31.0387 415.434 31.5674 414.849 32.1338C414.263 32.7002 413.801 33.2949 413.461 33.918C413.121 34.541 412.951 35.1924 412.951 35.8721C412.951 36.5895 413.083 37.2692 413.348 37.9111C413.612 38.5342 413.961 39.0911 414.396 39.582C414.83 40.054 415.33 40.4316 415.896 40.7148C416.463 40.9792 417.048 41.1113 417.652 41.1113C418.294 41.1113 418.908 41.0264 419.493 40.8564C420.078 40.6865 420.645 40.46 421.192 40.1768C421.74 39.8747 422.287 39.5348 422.835 39.1572C423.382 38.7796 423.939 38.3737 424.506 37.9395V27.1211Z" fill="black"/>
</svg>
